<?xml version="1.0"?><svg xmlns="http://www.w3.org/2000/svg" viewBox="0 0 1024 1024" width="1024" height="1024" role="img" aria-label="OpenTiles">
  <title>OpenTiles</title>
  <defs>
    <filter id="ot-dark-mono-glow" x="-30%" y="-30%" width="160%" height="160%" color-interpolation-filters="sRGB">
      <feGaussianBlur stdDeviation="26"></feGaussianBlur>
    </filter>
  </defs>
  <rect width="1024" height="1024" rx="229" ry="229" fill="#12161F"></rect>
  <g filter="url(#ot-dark-mono-glow)" opacity="0.5" transform="translate(0 26)">
    <rect x="202" y="202" width="282" height="282" rx="67" ry="67" fill="#5B8CFF"></rect>
    <rect x="540" y="202" width="282" height="282" rx="67" ry="67" fill="#5B8CFF"></rect>
    <rect x="202" y="540" width="282" height="282" rx="67" ry="67" fill="#5B8CFF"></rect>
    <rect x="540" y="540" width="282" height="282" rx="67" ry="67" fill="#5B8CFF"></rect>
  </g>
  <g>
    <rect x="202" y="202" width="282" height="282" rx="67" ry="67" fill="#5B8CFF"></rect>
    <rect x="540" y="202" width="282" height="282" rx="67" ry="67" fill="#5B8CFF"></rect>
    <rect x="202" y="540" width="282" height="282" rx="67" ry="67" fill="#5B8CFF"></rect>
    <rect x="540" y="540" width="282" height="282" rx="67" ry="67" fill="#5B8CFF"></rect>
  </g>
</svg>
